<svg xmlns="http://www.w3.org/2000/svg" width="1600" height="980" viewBox="0 0 1600 980" role="img" aria-labelledby="title desc">
  <title id="title">WPfrontforbuilderio Dashboard Preview</title>
  <desc id="desc">Mockup preview of the New Article WordPress style writing dashboard inside Builder.io.</desc>
  <defs>
    <linearGradient id="bg" x1="0" y1="0" x2="1" y2="1">
      <stop offset="0%" stop-color="#f6f8fb"/>
      <stop offset="100%" stop-color="#eef2f7"/>
    </linearGradient>
    <linearGradient id="header" x1="0" y1="0" x2="1" y2="0">
      <stop offset="0%" stop-color="#0f172a"/>
      <stop offset="100%" stop-color="#111827"/>
    </linearGradient>
    <filter id="shadow" x="-20%" y="-20%" width="140%" height="140%">
      <feDropShadow dx="0" dy="8" stdDeviation="12" flood-color="#0f172a" flood-opacity="0.14"/>
    </filter>
  </defs>

  <rect width="1600" height="980" fill="url(#bg)"/>

  <rect x="52" y="42" width="1496" height="896" rx="18" fill="#ffffff" filter="url(#shadow)"/>

  <rect x="52" y="42" width="1496" height="72" rx="18" fill="url(#header)"/>
  <rect x="52" y="96" width="1496" height="18" fill="url(#header)"/>

  <circle cx="90" cy="78" r="7" fill="#ef4444"/>
  <circle cx="114" cy="78" r="7" fill="#f59e0b"/>
  <circle cx="138" cy="78" r="7" fill="#22c55e"/>

  <text x="176" y="84" fill="#f8fafc" font-size="24" font-family="Segoe UI, Arial, sans-serif" font-weight="700">WPfrontforbuilderio | New Article</text>
  <text x="1375" y="84" fill="#cbd5e1" font-size="16" font-family="Segoe UI, Arial, sans-serif">Builder Plugin</text>

  <rect x="88" y="146" width="1040" height="748" rx="12" fill="#fbfdff" stroke="#e2e8f0"/>
  <rect x="1156" y="146" width="356" height="748" rx="12" fill="#f8fafc" stroke="#e2e8f0"/>

  <rect x="110" y="170" width="210" height="34" rx="8" fill="#0ea5e9"/>
  <text x="128" y="193" fill="#ffffff" font-size="15" font-family="Segoe UI, Arial, sans-serif" font-weight="700">New Article</text>

  <rect x="336" y="170" width="150" height="34" rx="8" fill="#e2e8f0"/>
  <text x="354" y="193" fill="#334155" font-size="15" font-family="Segoe UI, Arial, sans-serif">Preview</text>

  <rect x="500" y="170" width="160" height="34" rx="8" fill="#e2e8f0"/>
  <text x="518" y="193" fill="#334155" font-size="15" font-family="Segoe UI, Arial, sans-serif">SEO Score: 92</text>

  <rect x="676" y="170" width="180" height="34" rx="8" fill="#dcfce7"/>
  <text x="694" y="193" fill="#166534" font-size="15" font-family="Segoe UI, Arial, sans-serif">Ready to Publish</text>

  <text x="112" y="252" fill="#0f172a" font-size="18" font-family="Segoe UI, Arial, sans-serif" font-weight="700">Title</text>
  <rect x="112" y="266" width="992" height="50" rx="8" fill="#ffffff" stroke="#cbd5e1"/>
  <text x="130" y="298" fill="#1e293b" font-size="19" font-family="Georgia, Times New Roman, serif">How to Build Better Content Workflows in Builder.io</text>

  <text x="112" y="356" fill="#0f172a" font-size="18" font-family="Segoe UI, Arial, sans-serif" font-weight="700">Slug</text>
  <rect x="112" y="370" width="992" height="42" rx="8" fill="#ffffff" stroke="#cbd5e1"/>
  <text x="130" y="397" fill="#475569" font-size="17" font-family="Consolas, Menlo, monospace">/blog/better-content-workflows-builderio</text>

  <text x="112" y="450" fill="#0f172a" font-size="18" font-family="Segoe UI, Arial, sans-serif" font-weight="700">Excerpt</text>
  <rect x="112" y="464" width="992" height="84" rx="8" fill="#ffffff" stroke="#cbd5e1"/>
  <text x="130" y="494" fill="#334155" font-size="16" font-family="Segoe UI, Arial, sans-serif">Practical structure for article creation with SEO fields, visual style presets,</text>
  <text x="130" y="518" fill="#334155" font-size="16" font-family="Segoe UI, Arial, sans-serif">and publishing controls that match editorial workflows.</text>

  <text x="112" y="586" fill="#0f172a" font-size="18" font-family="Segoe UI, Arial, sans-serif" font-weight="700">Body</text>
  <rect x="112" y="600" width="992" height="258" rx="8" fill="#ffffff" stroke="#cbd5e1"/>

  <rect x="130" y="620" width="30" height="24" rx="4" fill="#f1f5f9" stroke="#cbd5e1"/>
  <rect x="168" y="620" width="30" height="24" rx="4" fill="#f1f5f9" stroke="#cbd5e1"/>
  <rect x="206" y="620" width="30" height="24" rx="4" fill="#f1f5f9" stroke="#cbd5e1"/>
  <rect x="244" y="620" width="72" height="24" rx="4" fill="#f1f5f9" stroke="#cbd5e1"/>
  <text x="252" y="637" fill="#334155" font-size="13" font-family="Segoe UI, Arial, sans-serif">Heading</text>

  <text x="130" y="680" fill="#0f172a" font-size="22" font-family="Georgia, Times New Roman, serif" font-weight="700">Why This Workflow Helps Teams</text>
  <text x="130" y="714" fill="#334155" font-size="16" font-family="Georgia, Times New Roman, serif">Writers and developers can work in one place with clear fields for content, metadata,</text>
  <text x="130" y="738" fill="#334155" font-size="16" font-family="Georgia, Times New Roman, serif">and publishing rules. The result is faster publishing with cleaner SEO output.</text>
  <text x="130" y="774" fill="#334155" font-size="16" font-family="Georgia, Times New Roman, serif">Use related-post references and required ALT texts to improve structure and accessibility.</text>

  <text x="1176" y="190" fill="#0f172a" font-size="17" font-family="Segoe UI, Arial, sans-serif" font-weight="700">Publishing</text>
  <rect x="1176" y="206" width="316" height="96" rx="10" fill="#ffffff" stroke="#dbe3ee"/>
  <text x="1194" y="236" fill="#334155" font-size="15" font-family="Segoe UI, Arial, sans-serif">Status</text>
  <rect x="1264" y="218" width="110" height="28" rx="14" fill="#dcfce7"/>
  <text x="1295" y="238" fill="#166534" font-size="13" font-family="Segoe UI, Arial, sans-serif">Draft</text>
  <text x="1194" y="272" fill="#334155" font-size="15" font-family="Segoe UI, Arial, sans-serif">Publish date</text>
  <text x="1320" y="272" fill="#0f172a" font-size="15" font-family="Segoe UI, Arial, sans-serif">2026-04-28</text>

  <text x="1176" y="340" fill="#0f172a" font-size="17" font-family="Segoe UI, Arial, sans-serif" font-weight="700">SEO</text>
  <rect x="1176" y="356" width="316" height="196" rx="10" fill="#ffffff" stroke="#dbe3ee"/>
  <text x="1194" y="386" fill="#334155" font-size="14" font-family="Segoe UI, Arial, sans-serif">Meta title</text>
  <rect x="1194" y="394" width="280" height="34" rx="6" fill="#f8fafc" stroke="#dbe3ee"/>
  <text x="1204" y="416" fill="#1e293b" font-size="13" font-family="Segoe UI, Arial, sans-serif">Build Better Content Workflows | Example</text>
  <text x="1194" y="456" fill="#334155" font-size="14" font-family="Segoe UI, Arial, sans-serif">Meta description</text>
  <rect x="1194" y="464" width="280" height="62" rx="6" fill="#f8fafc" stroke="#dbe3ee"/>
  <text x="1204" y="486" fill="#334155" font-size="13" font-family="Segoe UI, Arial, sans-serif">Structured writing flow with SEO fields,</text>
  <text x="1204" y="504" fill="#334155" font-size="13" font-family="Segoe UI, Arial, sans-serif">visual controls and publish sidebar.</text>
  <rect x="1194" y="534" width="102" height="26" rx="13" fill="#dbeafe"/>
  <text x="1218" y="552" fill="#1d4ed8" font-size="12" font-family="Segoe UI, Arial, sans-serif">Focus keyword</text>

  <text x="1176" y="592" fill="#0f172a" font-size="17" font-family="Segoe UI, Arial, sans-serif" font-weight="700">Visual Settings</text>
  <rect x="1176" y="608" width="316" height="152" rx="10" fill="#ffffff" stroke="#dbe3ee"/>
  <text x="1194" y="638" fill="#334155" font-size="14" font-family="Segoe UI, Arial, sans-serif">Style preset</text>
  <rect x="1290" y="620" width="184" height="28" rx="6" fill="#f8fafc" stroke="#dbe3ee"/>
  <text x="1302" y="639" fill="#0f172a" font-size="13" font-family="Segoe UI, Arial, sans-serif">Editorial Modern</text>
  <text x="1194" y="672" fill="#334155" font-size="14" font-family="Segoe UI, Arial, sans-serif">Content width</text>
  <rect x="1290" y="654" width="184" height="28" rx="6" fill="#f8fafc" stroke="#dbe3ee"/>
  <text x="1302" y="673" fill="#0f172a" font-size="13" font-family="Segoe UI, Arial, sans-serif">760 px</text>
  <text x="1194" y="706" fill="#334155" font-size="14" font-family="Segoe UI, Arial, sans-serif">Line height</text>
  <rect x="1290" y="688" width="184" height="28" rx="6" fill="#f8fafc" stroke="#dbe3ee"/>
  <text x="1302" y="707" fill="#0f172a" font-size="13" font-family="Segoe UI, Arial, sans-serif">1.65</text>

  <rect x="1176" y="784" width="316" height="78" rx="10" fill="#0ea5e9"/>
  <text x="1260" y="824" fill="#ffffff" font-size="20" font-family="Segoe UI, Arial, sans-serif" font-weight="700">Publish Article</text>

  <text x="70" y="960" fill="#64748b" font-size="13" font-family="Segoe UI, Arial, sans-serif">Preview render for documentation purposes</text>
</svg>